<?xml version="1.0" encoding="UTF-8" standalone="no"?>
<!DOCTYPE svg PUBLIC "-//W3C//DTD SVG 1.1//EN" "http://www.w3.org/Graphics/SVG/1.1/DTD/svg11.dtd">
<svg width="100%" height="100%" viewBox="0 0 2160 3840" version="1.1" xmlns="http://www.w3.org/2000/svg" xmlns:xlink="http://www.w3.org/1999/xlink" xml:space="preserve" xmlns:serif="http://www.serif.com/" style="fill-rule:evenodd;clip-rule:evenodd;stroke-linecap:round;stroke-linejoin:round;stroke-miterlimit:1.5;">
    <rect x="0" y="0" width="2160" height="3840" style="fill:rgb(68,81,98);"/>
    <g transform="matrix(0.999099,0,0,0.996937,0.973558,-19.2373)">
        <rect x="79.098" y="249" width="2001.81" height="3591" style="fill:rgb(99,111,127);"/>
    </g>
    <g transform="matrix(0.998002,0,0,0.999113,3.15624,-19.6373)">
        <rect x="127.098" y="409" width="1903.81" height="3383" style="fill:rgb(132,145,162);"/>
    </g>
    <g transform="matrix(1,0,0,1,0,151)">
        <g transform="matrix(1,-0,-0,1,0,-151)">
            <path d="M1098,536L1080,560L1062,536L1098,536Z" style="fill:rgb(212,215,220);"/>
            <path d="M1080,511.062L1080,540.8" style="fill:none;stroke:rgb(212,215,220);stroke-width:8px;"/>
        </g>
    </g>
    <g transform="matrix(1.01515,0,0,1.00265,-15.8298,-22.3757)">
        <rect x="189.952" y="1274" width="1779.05" height="1887" style="fill:rgb(174,180,192);"/>
    </g>
    <g transform="matrix(1.01405,0,0,0.153153,-4.14534,3238.88)">
        <rect x="189.952" y="1274" width="1779.05" height="1887" style="fill:rgb(174,180,192);"/>
    </g>
    <g transform="matrix(0.991983,0,0,1.01523,11.6348,-47.705)">
        <rect x="216.098" y="1556.46" width="1721.81" height="1540.54" style="fill:rgb(212,215,220);"/>
    </g>
    <g transform="matrix(1,0,0,1,0,-20)">
        <g transform="matrix(1,-0,-0,1,-0,20)">
            <path d="M576,2615.44L558,2639.44L540,2615.44L576,2615.44Z"/>
            <path d="M558,2232.19L558,2620.24" style="fill:none;stroke:black;stroke-width:8px;stroke-linejoin:bevel;stroke-miterlimit:5;"/>
        </g>
    </g>
    <g transform="matrix(1,0,0,1,0,-20)">
        <g transform="matrix(1,-0,-0,1,-0,20)">
            <path d="M777,1647L801,1665L777,1683L777,1647Z"/>
            <path d="M455.437,2761L273,2761L273,1665L781.8,1665" style="fill:none;stroke:black;stroke-width:8px;stroke-linejoin:bevel;stroke-miterlimit:5;"/>
        </g>
    </g>
    <g transform="matrix(1,0,0,1,0,-20)">
        <g transform="matrix(1,-0,-0,1,-0,20)">
            <path d="M1109,3169L1091,3193L1073,3169L1109,3169Z"/>
            <path d="M674.563,2761L1091,2761L1091,3173.8" style="fill:none;stroke:black;stroke-width:8px;stroke-linejoin:bevel;stroke-miterlimit:5;"/>
        </g>
    </g>
    <g transform="matrix(1,0,0,1,0,-20)">
        <g transform="matrix(1,-0,-0,1,-0,20)">
            <path d="M1109,3410L1091,3434L1073,3410L1109,3410Z" style="fill:rgb(9,12,14);"/>
            <path d="M1091,3267L1091,3414.8" style="fill:none;stroke:rgb(9,12,14);stroke-width:8px;stroke-linejoin:bevel;stroke-miterlimit:5;"/>
        </g>
    </g>
    <g transform="matrix(1.20887,0,0,1,-247.524,-20)">
        <g transform="matrix(0.827219,-0,-0,1,204.757,20)">
            <path d="M746.049,2335L722.049,2317L746.049,2299L746.049,2335Z"/>
            <path d="M1214,2317L741.249,2317" style="fill:none;stroke:black;stroke-width:8px;stroke-linejoin:bevel;stroke-miterlimit:5;"/>
        </g>
    </g>
    <g transform="matrix(1,0,0,1,0,-20)">
        <g transform="matrix(1,-0,-0,1,-0,20)">
            <path d="M1096.5,1775.44L1078.5,1799.44L1060.5,1775.44L1096.5,1775.44Z"/>
            <path d="M1078.5,1751L1078.5,1780.24" style="fill:none;stroke:black;stroke-width:8px;"/>
        </g>
    </g>
    <g transform="matrix(1,0,0,1,0,-20)">
        <rect x="801" y="1601" width="555" height="170" style="fill:rgb(124,125,189);"/>
    </g>
    <g transform="matrix(1,0,0,1,397.052,1151)">
        <rect x="801" y="1601" width="555" height="170" style="fill:rgb(124,125,189);"/>
    </g>
    <g transform="matrix(0.801802,0,0,1,213.757,-20)">
        <rect x="801" y="1601" width="555" height="170" style="fill:rgb(232,235,240);"/>
    </g>
    <g transform="matrix(1,0,0,1,0,-20)">
        <g transform="matrix(1,-0,-0,1,-0,20)">
            <path d="M1493.55,2728L1475.55,2752L1457.55,2728L1493.55,2728Z"/>
            <path d="M1475.55,2582.33L1475.55,2732.8" style="fill:none;stroke:black;stroke-width:8px;stroke-linejoin:bevel;stroke-miterlimit:5;"/>
        </g>
    </g>
    <g transform="matrix(0.801802,0,0,1,610.809,1151)">
        <rect x="801" y="1601" width="555" height="170" style="fill:rgb(232,235,240);"/>
    </g>
    <g transform="matrix(0.280295,0.280295,-0.915079,0.915079,2320.53,109.878)">
        <rect x="801" y="1601" width="555" height="170" style="fill:rgb(76,216,255);"/>
    </g>
    <g transform="matrix(0.477775,0.477775,-1.55979,1.55979,3590.08,-827.928)">
        <rect x="801" y="1601" width="555" height="170" style="fill:rgb(255,138,188);"/>
    </g>
    <g transform="matrix(1,0,0,9.1573,0,-5567.69)">
        <path d="M1080,700.5L1080,745" style="fill:none;"/>
        <g transform="matrix(1,-0,-0,0.109202,-0,608.006)">
            <path d="M1098,1230.5L1080,1254.5L1062,1230.5L1098,1230.5Z" style="fill:rgb(212,215,220);"/>
            <path d="M1080,847L1080,1235.3" style="fill:none;stroke:rgb(212,215,220);stroke-width:8px;"/>
        </g>
    </g>
    <g transform="matrix(1,0,0,3.58202,0,-1132.14)">
        <path d="M1080,700.5L1080,745" style="fill:none;"/>
        <g transform="matrix(1,-0,-0,0.279172,-0,316.063)">
            <path d="M1098,1512.46L1080,1536.46L1062,1512.46L1098,1512.46Z" style="fill:rgb(9,12,14);"/>
            <path d="M1080,1377.06L1080,1517.26" style="fill:none;stroke:rgb(9,12,14);stroke-width:8px;"/>
        </g>
    </g>
    <g transform="matrix(1,0,0,1,0,-20)">
        <g transform="matrix(1,-0,-0,1,-0,20)">
            <path d="M1493.55,2028L1475.55,2052L1457.55,2028L1493.55,2028Z"/>
            <path d="M1235.56,1955L1475.55,1955.03L1475.55,2032.8" style="fill:none;stroke:black;stroke-width:8px;stroke-linejoin:bevel;stroke-miterlimit:5;"/>
        </g>
    </g>
    <g transform="matrix(1,0,0,1,0,-20)">
        <g transform="matrix(1,-0,-0,1,-0,20)">
            <path d="M1098,365L1080,389L1062,365L1098,365Z" style="fill:rgb(212,215,220);"/>
            <path d="M1080,340.063L1080,369.8" style="fill:none;stroke:rgb(212,215,220);stroke-width:8px;"/>
        </g>
    </g>
    <g transform="matrix(1,0,0,1,0,-20)">
        <g transform="matrix(1,-0,-0,1,-0,20)">
            <path d="M1493.55,2951L1475.55,2975L1457.55,2951L1493.55,2951Z"/>
            <path d="M1475.55,2922L1475.55,2955.8" style="fill:none;stroke:black;stroke-width:8px;stroke-linejoin:bevel;stroke-miterlimit:5;"/>
        </g>
    </g>
    <g transform="matrix(1,0,0,1,0,-20)">
        <g transform="matrix(1,-0,-0,1,-0,20)">
            <path d="M1764.72,2335.16L1740.72,2317.16L1764.72,2299.16L1764.72,2335.16Z"/>
            <path d="M1689,3013L1836,3013L1836,2317.16L1759.92,2317.16" style="fill:none;stroke:black;stroke-width:8px;stroke-linejoin:bevel;stroke-miterlimit:5;"/>
        </g>
    </g>
    <g transform="matrix(0.64959,0,0,1,792.881,135.062)">
        <path d="M686,149.5C686,139.29 673.239,131 657.521,131L226.479,131C210.761,131 198,139.29 198,149.5L198,186.5C198,196.71 210.761,205 226.479,205L657.521,205C673.239,205 686,196.71 686,186.5L686,149.5Z" style="fill:rgb(255,173,88);"/>
    </g>
    <g transform="matrix(0.711066,0,0,1,764.709,306.062)">
        <path d="M686,149.5C686,139.29 674.342,131 659.983,131L224.017,131C209.658,131 198,139.29 198,149.5L198,186.5C198,196.71 209.658,205 224.017,205L659.983,205C674.342,205 686,196.71 686,186.5L686,149.5Z" style="fill:rgb(255,173,88);"/>
    </g>
    <g transform="matrix(1.02664,0,0,1,625.225,1004.18)">
        <path d="M686,149.5C686,139.29 677.926,131 667.98,131L216.02,131C206.074,131 198,139.29 198,149.5L198,186.5C198,196.71 206.074,205 216.02,205L667.98,205C677.926,205 686,196.71 686,186.5L686,149.5Z" style="fill:rgb(255,173,88);"/>
    </g>
    <g transform="matrix(0.637295,0,0,1,796.792,1172.06)">
        <path d="M686,149.5C686,139.29 672.993,131 656.971,131L227.029,131C211.007,131 198,139.29 198,149.5L198,186.5C198,196.71 211.007,205 227.029,205L656.971,205C672.993,205 686,196.71 686,186.5L686,149.5Z" style="fill:rgb(255,173,88);"/>
    </g>
    <g transform="matrix(0.614754,0,0,1,819.279,3182.5)">
        <path d="M686,149.5C686,139.29 672.516,131 655.907,131L228.093,131C211.484,131 198,139.29 198,149.5L198,186.5C198,196.71 211.484,205 228.093,205L655.907,205C672.516,205 686,196.71 686,186.5L686,149.5Z" style="fill:rgb(255,173,88);"/>
    </g>
    <g transform="matrix(0.625,0,0,1,803.75,766.327)">
        <path d="M686,149.5C686,139.29 672.737,131 656.4,131L227.6,131C211.263,131 198,139.29 198,149.5L198,186.5C198,196.71 211.263,205 227.6,205L656.4,205C672.737,205 686,196.71 686,186.5L686,149.5Z" style="fill:rgb(255,173,88);"/>
    </g>
    <g transform="matrix(1.01012,0,0,1.0106,-11.9916,-26.1484)">
        <rect x="187.098" y="580" width="1787.9" height="283" style="fill:rgb(174,180,192);"/>
    </g>
    <g transform="matrix(1,0,0,1,0,-20)">
        <path d="M1080,700.5L1080,745" style="fill:none;stroke:black;stroke-width:8px;"/>
    </g>
    <g transform="matrix(0.54918,0,0,1,837.262,473.878)">
        <path d="M686,149.5C686,139.29 670.906,131 652.313,131L231.687,131C213.094,131 198,139.29 198,149.5L198,186.5C198,196.71 213.094,205 231.687,205L652.313,205C670.906,205 686,196.71 686,186.5L686,149.5Z" style="fill:rgb(211,255,127);"/>
    </g>
    <g transform="matrix(0.77459,0,0,1,737.631,593.878)">
        <path d="M686,149.5C686,139.29 675.298,131 662.116,131L221.884,131C208.702,131 198,139.29 198,149.5L198,186.5C198,196.71 208.702,205 221.884,205L662.116,205C675.298,205 686,196.71 686,186.5L686,149.5Z" style="fill:rgb(211,255,127);"/>
    </g>
    <g transform="matrix(0.508197,0,0,1,855.377,884.615)">
        <path d="M686,149.5C686,139.29 669.688,131 649.597,131L234.403,131C214.312,131 198,139.29 198,149.5L198,186.5C198,196.71 214.312,205 234.403,205L649.597,205C669.688,205 686,196.71 686,186.5L686,149.5Z" style="fill:rgb(211,255,127);"/>
    </g>
    <g transform="matrix(0.491803,0,0,1,341.623,2027)">
        <path d="M686,149.5C686,139.29 669.145,131 648.383,131L235.617,131C214.855,131 198,139.29 198,149.5L198,186.5C198,196.71 214.855,205 235.617,205L648.383,205C669.145,205 686,196.71 686,186.5L686,149.5Z" style="fill:rgb(211,255,127);"/>
    </g>
    <g transform="matrix(0.672131,0,0,1,260.967,2148.99)">
        <path d="M686,149.5C686,139.29 673.667,131 658.476,131L225.524,131C210.333,131 198,139.29 198,149.5L198,186.5C198,196.71 210.333,205 225.524,205L658.476,205C673.667,205 686,196.71 686,186.5L686,149.5Z" style="fill:rgb(211,255,127);"/>
    </g>
    <g transform="matrix(0.385246,0,0,1,387.77,2268.99)">
        <path d="M686,149.5C686,139.29 664.482,131 637.979,131L246.021,131C219.518,131 198,139.29 198,149.5L198,186.5C198,196.71 219.518,205 246.021,205L637.979,205C664.482,205 686,196.71 686,186.5L686,149.5Z" style="fill:rgb(211,255,127);"/>
    </g>
    <g transform="matrix(0.874788,0,0,1,1088.9,2845)">
        <path d="M686,149.5C686,139.29 676.524,131 664.852,131L219.148,131C207.476,131 198,139.29 198,149.5L198,186.5C198,196.71 207.476,205 219.148,205L664.852,205C676.524,205 686,196.71 686,186.5L686,149.5Z" style="fill:rgb(211,255,127);"/>
    </g>
    <g transform="matrix(0.512295,0,0,1,864.566,3062)">
        <path d="M686,149.5C686,139.29 669.819,131 649.888,131L234.112,131C214.181,131 198,139.29 198,149.5L198,186.5C198,196.71 214.181,205 234.112,205L649.888,205C669.819,205 686,196.71 686,186.5L686,149.5Z" style="fill:rgb(211,255,127);"/>
    </g>
    <g transform="matrix(1,0,0,1,0,-20)">
        <path d="M1091,3577.5L1091,3620.5" style="fill:none;stroke:rgb(9,12,14);stroke-width:8px;stroke-linejoin:bevel;stroke-miterlimit:5;"/>
    </g>
    <g transform="matrix(0.889344,0,0,1,698.41,3470)">
        <path d="M686,149.5C686,139.29 676.679,131 665.198,131L218.802,131C207.321,131 198,139.29 198,149.5L198,186.5C198,196.71 207.321,205 218.802,205L665.198,205C676.679,205 686,196.71 686,186.5L686,149.5Z" style="fill:rgb(211,255,127);"/>
    </g>
    <g transform="matrix(0.610656,0,0,1,821.59,3352)">
        <path d="M686,149.5C686,139.29 672.425,131 655.705,131L228.295,131C211.575,131 198,139.29 198,149.5L198,186.5C198,196.71 211.575,205 228.295,205L655.705,205C672.425,205 686,196.71 686,186.5L686,149.5Z" style="fill:rgb(211,255,127);"/>
    </g>
    <g transform="matrix(0.57377,0,0,1,304.442,2387.99)">
        <path d="M686,149.5C686,139.29 671.552,131 653.757,131L230.243,131C212.448,131 198,139.29 198,149.5L198,186.5C198,196.71 212.448,205 230.243,205L653.757,205C671.552,205 686,196.71 686,186.5L686,149.5Z" style="fill:rgb(211,255,127);"/>
    </g>
    <g transform="matrix(1,0,0,1,0,-20)">
        <g transform="matrix(1,-0,-0,1,-0,20)">
            <path d="M577,2134L559,2158L541,2134L577,2134Z"/>
            <path d="M924.437,1955L559,1955L559,2138.8" style="fill:none;stroke:black;stroke-width:8px;stroke-linejoin:bevel;stroke-miterlimit:5;"/>
        </g>
    </g>
    <g transform="matrix(0.219033,0.219033,-0.715079,0.715079,1527.4,1319.15)">
        <rect x="801" y="1601" width="555" height="170" style="fill:rgb(76,216,255);"/>
    </g>
    <g transform="matrix(1,0,0,1,181.604,1939.86)">
        <g transform="matrix(54.1667,0,0,54.1667,488.189,270)">
        </g>
        <text x="267px" y="270px" style="font-family:'VAGRoundedBT-Regular', 'VAGRounded BT', sans-serif;font-size:54.167px;fill:rgb(9,12,14);">Update()</text>
    </g>
    <g transform="matrix(1,0,0,1,136.298,2061.82)">
        <g transform="matrix(54.1667,0,0,54.1667,576.898,270)">
        </g>
        <text x="267px" y="270px" style="font-family:'VAGRoundedBT-Regular', 'VAGRounded BT', sans-serif;font-size:54.167px;fill:rgb(9,12,14);">BeginDraw()</text>
    </g>
    <g transform="matrix(1,0,0,1,207.723,2184.59)">
        <g transform="matrix(54.1667,0,0,54.1667,434.049,270)">
        </g>
        <text x="267px" y="270px" style="font-family:'VAGRoundedBT-Regular', 'VAGRounded BT', sans-serif;font-size:54.167px;fill:rgb(9,12,14);">Draw()</text>
    </g>
    <g transform="matrix(1,0,0,1,1098.16,2757.86)">
        <g transform="matrix(54.1667,0,0,54.1667,488.189,270)">
        </g>
        <text x="267px" y="270px" style="font-family:'VAGRoundedBT-Regular', 'VAGRounded BT', sans-serif;font-size:54.167px;fill:rgb(9,12,14);">Update()</text>
    </g>
    <g transform="matrix(1,0,0,1,712.903,2977.6)">
        <g transform="matrix(54.1667,0,0,54.1667,489.591,270)">
        </g>
        <text x="267px" y="270px" style="font-family:'VAGRoundedBT-Regular', 'VAGRounded BT', sans-serif;font-size:54.167px;fill:rgb(9,12,14);">EndRun()</text>
    </g>
    <g transform="matrix(1,0,0,1,618.373,3385.6)">
        <g transform="matrix(54.1667,0,0,54.1667,679.651,270)">
        </g>
        <text x="267px" y="270px" style="font-family:'VAGRoundedBT-Regular', 'VAGRounded BT', sans-serif;font-size:54.167px;fill:rgb(9,12,14);">UnloadContent()</text>
    </g>
    <g transform="matrix(1,0,0,1,161.795,2303.59)">
        <g transform="matrix(54.1667,0,0,54.1667,525.905,270)">
        </g>
        <text x="267px" y="270px" style="font-family:'VAGRoundedBT-Regular', 'VAGRounded BT', sans-serif;font-size:54.167px;fill:rgb(9,12,14);">EndDraw()</text>
    </g>
    <g transform="matrix(1,0,0,1,688.634,3264.65)">
        <g transform="matrix(54.1667,0,0,54.1667,541.034,270)">
        </g>
        <text x="267px" y="270px" style="font-family:'VAGRoundedBT-Regular', 'VAGRounded BT', sans-serif;font-size:54.167px;fill:rgb(9,12,14);">OnExiting()</text>
    </g>
    <g transform="matrix(0.612044,0,0,0.612044,250.289,2604.49)">
        <g transform="matrix(54.1667,0,0,54.1667,642.05,270)">
        </g>
        <text x="362.225px" y="270px" style="font-family:'VAGRoundedBT-Regular', 'VAGRounded BT', sans-serif;font-size:54.167px;fill:rgb(49,45,43);">_shouldExit</text>
    </g>
    <g transform="matrix(0.612044,0,0,0.612044,1170.04,2664.93)">
        <text x="171.154px" y="270px" style="font-family:'VAGRoundedBT-Regular', 'VAGRounded BT', sans-serif;font-size:47.927px;fill:rgb(49,45,43);">_accumulatedElapsedTime -=</text>
        <g transform="matrix(47.9268,0,0,47.9268,709.009,317.927)">
        </g>
        <text x="295.266px" y="317.927px" style="font-family:'VAGRoundedBT-Regular', 'VAGRounded BT', sans-serif;font-size:47.927px;fill:rgb(49,45,43);">T<tspan x="314.174px 343.029px " y="317.927px 317.927px ">ar</tspan>getElapsedTime</text>
    </g>
    <g transform="matrix(1,0,0,1,-170.412,20.6565)">
        <g transform="matrix(54.1667,0,0,54.1667,658.677,270)">
        </g>
        <text x="267px" y="270px" style="font-family:'VAGRoundedBT-Regular', 'VAGRounded BT', sans-serif;font-size:54.167px;fill:rgb(232,235,240);">Program.Main()</text>
    </g>
    <g transform="matrix(1,0,0,1,689.194,389.479)">
        <g transform="matrix(54.1667,0,0,54.1667,514.797,270)">
        </g>
        <text x="267px" y="270px" style="font-family:'VAGRoundedBT-Regular', 'VAGRounded BT', sans-serif;font-size:54.167px;fill:rgb(9,12,14);">Initialize()</text>
    </g>
    <g transform="matrix(1,0,0,1,637.712,509.479)">
        <g transform="matrix(54.1667,0,0,54.1667,617.972,270)">
        </g>
        <text x="267px" y="270px" style="font-family:'VAGRoundedBT-Regular', 'VAGRounded BT', sans-serif;font-size:54.167px;fill:rgb(9,12,14);">LoadContent()</text>
    </g>
    <g transform="matrix(1,0,0,1,702.604,797.479)">
        <g transform="matrix(54.1667,0,0,54.1667,488.189,270)">
        </g>
        <text x="267px" y="270px" style="font-family:'VAGRoundedBT-Regular', 'VAGRounded BT', sans-serif;font-size:54.167px;fill:rgb(9,12,14);">Update()</text>
    </g>
    <g transform="matrix(1,0,0,1,654.719,220.042)">
        <g transform="matrix(54.1667,0,0,54.1667,583.96,270)">
        </g>
        <text x="267px" y="270px" style="font-family:'VAGRoundedBT-Regular', 'VAGRounded BT', sans-serif;font-size:54.167px;fill:rgb(9,12,14);">DoInitialize()</text>
    </g>
    <g transform="matrix(1,0,0,1,572.9,917.042)">
        <g transform="matrix(54.1667,0,0,54.1667,747.597,270)">
        </g>
        <text x="267px" y="270px" style="font-family:'VAGRoundedBT-Regular', 'VAGRounded BT', sans-serif;font-size:54.167px;fill:rgb(9,12,14);">Platform.RunLoop()</text>
    </g>
    <g transform="matrix(1,0,0,1,668.498,1087.66)">
        <g transform="matrix(54.1667,0,0,54.1667,558.305,270)">
        </g>
        <text x="267px" y="270px" style="font-family:'VAGRoundedBT-Regular', 'VAGRounded BT', sans-serif;font-size:54.167px;fill:rgb(9,12,14);">Game.Tick()</text>
    </g>
    <g transform="matrix(1,0,0,1,688.993,3095.15)">
        <g transform="matrix(54.1667,0,0,54.1667,537.41,270)">
        </g>
        <text x="267px" y="270px" style="font-family:'VAGRoundedBT-Regular', 'VAGRounded BT', sans-serif;font-size:54.167px;fill:rgb(9,12,14);">DoExiting()</text>
    </g>
    <g transform="matrix(1,0,0,1,676.406,678.979)">
        <g transform="matrix(54.1667,0,0,54.1667,540.584,270)">
        </g>
        <text x="267px" y="270px" style="font-family:'VAGRoundedBT-Regular', 'VAGRounded BT', sans-serif;font-size:54.167px;fill:rgb(9,12,14);">BeginRun()</text>
    </g>
    <g transform="matrix(1,0,0,1,-118.508,180.656)">
        <g transform="matrix(54.1667,0,0,54.1667,559.865,270)">
        </g>
        <text x="267px" y="270px" style="font-family:'VAGRoundedBT-Regular', 'VAGRounded BT', sans-serif;font-size:54.167px;fill:rgb(232,235,240);">Game.Run()</text>
    </g>
    <g transform="matrix(1,0,0,1,667.718,49.0417)">
        <g transform="matrix(54.1667,0,0,54.1667,559.865,270)">
        </g>
        <text x="267px" y="270px" style="font-family:'VAGRoundedBT-Regular', 'VAGRounded BT', sans-serif;font-size:54.167px;fill:rgb(9,12,14);">Game.Run()</text>
    </g>
    <g transform="matrix(1,0,0,1,8.85295,77.5156)">
        <text x="179px" y="935px" style="font-family:'VAGRoundedBT-Regular', 'VAGRounded BT', sans-serif;font-size:53.333px;fill:rgb(232,235,240);">Update is called initially</text>
        <text x="179px" y="988.333px" style="font-family:'VAGRoundedBT-Regular', 'VAGRounded BT', sans-serif;font-size:53.333px;fill:rgb(232,235,240);">before game loop for</text>
        <g transform="matrix(53.3333,0,0,53.3333,626.422,1041.67)">
        </g>
        <text x="179px" y="1041.67px" style="font-family:'VAGRoundedBT-Regular', 'VAGRounded BT', sans-serif;font-size:53.333px;fill:rgb(232,235,240);">XNA Compatibility</text>
    </g>
    <g transform="matrix(1,0,0,1,2.08823,-0.00760091)">
        <g transform="matrix(0.583317,0,0,0.583317,89.6242,832.244)">
            <text x="179px" y="935px" style="font-family:'VAGRoundedBT-Regular', 'VAGRounded BT', sans-serif;font-size:73.145px;fill:rgb(9,12,14);">Platform.RunLoop is different</text>
            <text x="179px" y="1008.14px" style="font-family:'VAGRoundedBT-Regular', 'VAGRounded BT', sans-serif;font-size:73.145px;fill:rgb(9,12,14);">depending on the platform,</text>
            <text x="179px" y="1081.29px" style="font-family:'VAGRoundedBT-Regular', 'VAGRounded BT', sans-serif;font-size:73.145px;fill:rgb(9,12,14);">however<tspan x="456.722px 473.616px " y="1081.29px 1081.29px ">, </tspan>they all ultimately</text>
            <g transform="matrix(73.145,0,0,73.145,715.087,1154.43)">
            </g>
            <text x="179px" y="1154.43px" style="font-family:'VAGRoundedBT-Regular', 'VAGRounded BT', sans-serif;font-size:73.145px;fill:rgb(9,12,14);">call Game.Tick()</text>
        </g>
        <g transform="matrix(1,0,0,1,-75.5001,1046.66)">
            <g transform="matrix(54.1667,0,0,54.1667,747.597,270)">
            </g>
            <text x="267px" y="270px" style="font-family:'VAGRoundedBT-Regular', 'VAGRounded BT', sans-serif;font-size:54.167px;fill:rgb(49,45,43);">Platform.RunLoop()</text>
        </g>
    </g>
    <g transform="matrix(0.612044,0,0,0.612044,771.397,1479.9)">
        <text x="171.001px" y="270px" style="font-family:'VAGRoundedBT-Regular', 'VAGRounded BT', sans-serif;font-size:54.167px;fill:rgb(49,45,43);">_accumulatedElapsedTime</text>
        <text x="178.632px" y="324.167px" style="font-family:'VAGRoundedBT-Regular', 'VAGRounded BT', sans-serif;font-size:54.167px;fill:rgb(49,45,43);">increases, but not beyond</text>
        <g transform="matrix(54.1667,0,0,54.1667,802.54,378.333)">
        </g>
        <text x="201.735px" y="378.333px" style="font-family:'VAGRoundedBT-Regular', 'VAGRounded BT', sans-serif;font-size:54.167px;fill:rgb(49,45,43);">the maximum of 500ms</text>
    </g>
    <g transform="matrix(1,0,0,1,-71.5076,351.656)">
        <g transform="matrix(54.1667,0,0,54.1667,746.089,270)">
        </g>
        <text x="267px" y="270px" style="font-family:'VAGRoundedBT-Regular', 'VAGRounded BT', sans-serif;font-size:54.167px;fill:rgb(9,12,14);">Game.DoInitialize()</text>
    </g>
    <g transform="matrix(1,0,0,1,-22.5076,1324.12)">
        <g transform="matrix(54.1667,0,0,54.1667,558.305,270)">
        </g>
        <text x="267px" y="270px" style="font-family:'VAGRoundedBT-Regular', 'VAGRounded BT', sans-serif;font-size:54.167px;fill:rgb(49,45,43);">Game.Tick()</text>
    </g>
    <g transform="matrix(1,0,0,1,-60.0315,3225.66)">
        <g transform="matrix(54.1667,0,0,54.1667,699.54,270)">
        </g>
        <text x="267px" y="270px" style="font-family:'VAGRoundedBT-Regular', 'VAGRounded BT', sans-serif;font-size:54.167px;fill:rgb(9,12,14);">Game.DoExiting()</text>
    </g>
    <g transform="matrix(0.612044,0,0,0.612044,770.366,1798.57)">
        <g transform="matrix(54.1667,0,0,54.1667,702.009,270)">
        </g>
        <text x="302.266px" y="270px" style="font-family:'VAGRoundedBT-Regular', 'VAGRounded BT', sans-serif;font-size:54.167px;fill:rgb(49,45,43);">IsFixedTimeStep</text>
    </g>
    <g transform="matrix(0.612044,0,0,0.612044,1168.66,2143.29)">
        <text x="161.454px" y="270px" style="font-family:'VAGRoundedBT-Regular', 'VAGRounded BT', sans-serif;font-size:47.927px;fill:rgb(49,45,43);">_accumulatedElapsedTime &gt;=</text>
        <g transform="matrix(47.9268,0,0,47.9268,888.267,317.927)">
        </g>
        <text x="116.008px" y="317.927px" style="font-family:'VAGRoundedBT-Regular', 'VAGRounded BT', sans-serif;font-size:47.927px;fill:rgb(49,45,43);">T<tspan x="134.917px 163.771px " y="317.927px 317.927px ">ar</tspan>getElapsedTime &amp;&amp; !_shouldExit</text>
    </g>
    <g transform="matrix(0.612044,0,0,0.612044,977.905,1837.79)">
        <g transform="matrix(54.1667,0,0,54.1667,554.096,270)">
        </g>
        <text x="450.179px" y="270px" style="font-family:'VAGRoundedBT-Regular', 'VAGRounded BT', sans-serif;font-size:54.167px;fill:rgb(49,45,43);">T<tspan x="471.814px 492.391px " y="270px 270px ">ru</tspan>e</text>
    </g>
    <g transform="matrix(0.612044,0,0,0.612044,424.698,2643.83)">
        <g transform="matrix(54.1667,0,0,54.1667,554.096,270)">
        </g>
        <text x="450.179px" y="270px" style="font-family:'VAGRoundedBT-Regular', 'VAGRounded BT', sans-serif;font-size:54.167px;fill:rgb(49,45,43);">T<tspan x="471.814px 492.391px " y="270px 270px ">ru</tspan>e</text>
    </g>
    <g transform="matrix(0.612044,0,0,0.612044,1223.91,2457.79)">
        <g transform="matrix(54.1667,0,0,54.1667,554.096,270)">
        </g>
        <text x="450.179px" y="270px" style="font-family:'VAGRoundedBT-Regular', 'VAGRounded BT', sans-serif;font-size:54.167px;fill:rgb(49,45,43);">T<tspan x="471.814px 492.391px " y="270px 270px ">ru</tspan>e</text>
    </g>
    <g transform="matrix(0.612044,0,0,0.612044,561.366,1837.82)">
        <g transform="matrix(54.1667,0,0,54.1667,565.455,270)">
        </g>
        <text x="438.82px" y="270px" style="font-family:'VAGRoundedBT-Regular', 'VAGRounded BT', sans-serif;font-size:54.167px;fill:rgb(49,45,43);">F<tspan x="464.052px 496.663px " y="270px 270px ">al</tspan>se</text>
    </g>
    <g transform="matrix(0.612044,0,0,0.612044,75.3349,2644.71)">
        <g transform="matrix(54.1667,0,0,54.1667,565.455,270)">
        </g>
        <text x="438.82px" y="270px" style="font-family:'VAGRoundedBT-Regular', 'VAGRounded BT', sans-serif;font-size:54.167px;fill:rgb(49,45,43);">F<tspan x="464.052px 496.663px " y="270px 270px ">al</tspan>se</text>
    </g>
    <g transform="matrix(0.612044,0,0,0.612044,847.335,2200.67)">
        <g transform="matrix(54.1667,0,0,54.1667,565.455,270)">
        </g>
        <text x="438.82px" y="270px" style="font-family:'VAGRoundedBT-Regular', 'VAGRounded BT', sans-serif;font-size:54.167px;fill:rgb(49,45,43);">F<tspan x="464.052px 496.663px " y="270px 270px ">al</tspan>se</text>
    </g>
    <g transform="matrix(1.09426,0,0,1,-71.091,4.01042)">
        <path d="M686,149.5C686,139.29 678.425,131 669.094,131L214.906,131C205.575,131 198,139.29 198,149.5L198,186.5C198,196.71 205.575,205 214.906,205L669.094,205C678.425,205 686,196.71 686,186.5L686,149.5Z" style="fill:rgb(211,255,127);"/>
    </g>
    <g transform="matrix(1,0,0,1,-104.563,-82.1563)">
        <g transform="matrix(42.6667,0,0,42.6667,765.833,270)">
        </g>
        <text x="267px" y="270px" style="font-family:'VAGRoundedBT-Regular', 'VAGRounded BT', sans-serif;font-size:42.667px;fill:rgb(9,12,14);">Can override in Game1.cs</text>
    </g>
    <g transform="matrix(1.31762,0,0,1,1110.54,4.01042)">
        <path d="M686,149.5C686,139.29 679.709,131 671.96,131L212.04,131C204.291,131 198,139.29 198,149.5L198,186.5C198,196.71 204.291,205 212.04,205L671.96,205C679.709,205 686,196.71 686,186.5L686,149.5Z" style="fill:rgb(255,173,88);"/>
    </g>
    <g transform="matrix(1,0,0,1,1127.23,-83.1458)">
        <text x="267px" y="270px" style="font-family:'VAGRoundedBT-Regular', 'VAGRounded BT', sans-serif;font-size:42.667px;fill:rgb(9,12,14);">Can</text>
        <text x="357.333px" y="270px" style="font-family:'VAGRoundedBT-Regular', 'VAGRounded BT', sans-serif;font-size:42.667px;fill:rgb(251,27,123);">NOT</text>
        <g transform="matrix(42.6667,0,0,42.6667,863.938,270)">
        </g>
        <text x="455.437px" y="270px" style="font-family:'VAGRoundedBT-Regular', 'VAGRounded BT', sans-serif;font-size:42.667px;fill:rgb(9,12,14);">override in Game1.cs</text>
    </g>
    <g transform="matrix(1,0,0,1,-29.0417,-5.59375)">
        <g transform="matrix(106.667,0,0,106.667,2045.29,107)">
        </g>
        <text x="173px" y="107px" style="font-family:'VAGRoundedBT-Regular', 'VAGRounded BT', sans-serif;font-size:106.667px;fill:rgb(232,235,240);">MonoGame Execution Order of Events</text>
    </g>
</svg>
